<svg id="Calque_1" data-name="Calque 1" xmlns="http://www.w3.org/2000/svg" viewBox="0 0 100 82.09"><defs><style>.cls-1{fill:#000000;}</style></defs><path class="cls-1" d="M80.67,9H11A11,11,0,0,0,0,20V71.14a11,11,0,0,0,11,11H47.1l8-8H11a3,3,0,0,1-2.95-3V30.41L45.83,54,83.62,30.41V45.55l8-8V20A11,11,0,0,0,80.67,9ZM45.83,45.89,8.05,22.28V20A3,3,0,0,1,11,17H80.67a3,3,0,0,1,3,2.94v2.33Z" transform="translate(0 -8.96)"/><polygon class="cls-1" points="68.86 82.09 60.13 82.09 60.13 73.35 83.66 49.82 92.39 58.56 68.86 82.09"/><path class="cls-1" d="M87.14,55.31l3.25-3.26a3,3,0,0,1,4.24,0l4.49,4.49a3,3,0,0,1,0,4.25L95.87,64Z" transform="translate(0 -8.96)"/></svg>