<svg id="Calque_1" data-name="Calque 1" xmlns="http://www.w3.org/2000/svg" viewBox="0 0 89.93 100"><defs><style>.cls-1{fill:#fff;}</style></defs><path d="M15,34.42c0-6.38,0-13.11,0-19.84a50.76,50.76,0,0,1,.08-5.92,10.68,10.68,0,0,1,5.59-7.57c2.4-1.11,4.67-1,7-1C40.41.05,53.13.2,65.85,0a9.15,9.15,0,0,1,7.37,3C77.7,7.69,82.37,12.17,87,16.74c2.45,2.45,4.92,4.88,7.29,7.4a3.22,3.22,0,0,1,.68,2c0,21.55.11,43.09-.07,64.63,0,3.64-2,6.44-5.74,8.15a12.52,12.52,0,0,1-5.62,1c-19.34,0-38.67,0-58,.07a10.86,10.86,0,0,1-8.8-4.25,8.55,8.55,0,0,1-1.57-4.69c-.23-3.59-.07-7.2-.07-10.56-1.81-.68-3.46-1.25-5.08-1.91a8.75,8.75,0,0,1-3.57-3.41c-1.62-2.26-1.34-4.85-1.34-7.39,0-7.84,0-15.68,0-23.52a8.69,8.69,0,0,1,5.71-8C12.09,35.71,13.36,35.13,15,34.42Zm10.07.5H84.85V30H65V27.94c0-5.28,0-10.56,0-15.84,0-1.52-.28-2.1-2-2.09-12.07.08-24.14,0-36.21,0H25.08ZM25.16,80v9.83H84.83V80Zm-2.77-34.9H15.13V69.87H20c0-.74,0-1.36,0-2,0-3.25-.07-6.5,0-9.75V56.28h1l4.78,13.59,3.21,0,5.2-13.59h.89c.06,3.64,0,9.84,0,13.58h4.81V45.18H32.82L27.48,61.1ZM64,50.73a8.83,8.83,0,0,0-3-4,10.14,10.14,0,0,0-11.84-.15A10.7,10.7,0,0,0,45,54.93a43.83,43.83,0,0,0,0,6.78,9.06,9.06,0,0,0,1.46,4.38,8.89,8.89,0,0,0,5.27,3.61c3.35.55,6.73.81,9.73-2,2.35-2.19,3-4.6,3.43-7.61A20.38,20.38,0,0,0,65.21,58a18.62,18.62,0,0,0-1.16-7.2Zm12-3.17a3.79,3.79,0,0,0-1.92-2.41A17.41,17.41,0,0,0,69.61,45l6.91,24.77h6.89L90.31,45s-3.09-.07-4.29,0a1.66,1.66,0,0,0-1.21.8l-4,14.57c-.08.35-.59.56-1,.56a1,1,0,0,1-.88-.63Z" transform="translate(-5.03 0)"/><path class="cls-1" d="M25.08,34.92V10.05h1.75c12.07,0,24.14,0,36.21,0,1.7,0,2,.57,2,2.09-.08,5.28,0,10.56,0,15.84V30H84.85v4.91Z" transform="translate(-5.03 0)"/><path class="cls-1" d="M25.16,80H84.83v9.83H25.16Z" transform="translate(-5.03 0)"/><path d="M59.52,52.87A6,6,0,0,0,58,50.22a4.82,4.82,0,0,0-1.31-.9,3.94,3.94,0,0,0-4.48.89,8.37,8.37,0,0,0-2.06,5.62,43.91,43.91,0,0,0,0,4.59,7.77,7.77,0,0,0,.73,3,4.67,4.67,0,0,0,2.62,2.44c1.66.38,3.34.55,4.83-1.34A9.3,9.3,0,0,0,60,59.33c.06-.54.08-.8.11-1.44A16.56,16.56,0,0,0,59.56,53,.74.74,0,0,0,59.52,52.87Z" transform="translate(-5.03 0)"/></svg>