<svg id="Calque_1" data-name="Calque 1" xmlns="http://www.w3.org/2000/svg" viewBox="0 0 99.4 93.9"><path d="M99.47,13.58a9.91,9.91,0,0,0-1.9-5.65,10.49,10.49,0,0,0-9-4.85q-38.76,0-77.52,0A10.64,10.64,0,0,0,3.54,6.21,10.34,10.34,0,0,0,.32,13.68c.08,14,0,27.92,0,41.89,0,4.75-.15,9.51.1,14.25a10.76,10.76,0,0,0,2.73,6.9,10.69,10.69,0,0,0,7,3.4c8.3-.38,16.88,0,25.72,0,.91,0,1.81.1,2.43.13L49.87,97,61.4,80.15h2.53c6.32,0,12.64.19,18.94-.07,6.23.06,11.86-1.07,14.7-5.26a11.49,11.49,0,0,0,1.87-5.27C100,40,99.44,18.31,99.47,13.58Zm-66,.58H66.25V36H33.49ZM22.3,69H11.42V58.3H22.3ZM11.45,47V36.18H22.26V47ZM22.3,25H11.43V14.25H22.3Zm44,44.11c-2.5,0-4.9-.15-7.44,0-3.28.12-5.18,2.09-6.37,4.84,0,0-1,2.14-1.8,3.46H49.07a48.34,48.34,0,0,0-3.57-6.6,5.38,5.38,0,0,0-3.61-1.56c-2.75-.23-5.53-.07-8.43-.07V47.22H66.27Zm11.2-54.89H88.36V25H77.47Zm10.84,22V47.06H77.49V36.22ZM88.4,69H77.48V58.31H88.4Z" transform="translate(-0.3 -3.05)"/></svg>