<svg id="Calque_1" data-name="Calque 1" xmlns="http://www.w3.org/2000/svg" viewBox="0 0 266 150"><defs><style>.cls-1{fill:#faf9f6;}</style></defs><polygon class="cls-1" points="265.32 70.88 265.32 64.09 264.19 64.09 264.19 64.99 262.71 64.99 262.71 68.67 261.81 68.67 261.81 70.93 261.02 70.93 261.02 70.14 260.23 70.14 260.23 71.05 259.43 71.05 259.43 70.2 257.51 70.2 257.51 72.57 256.77 72.57 256.77 71.78 255.98 71.78 255.98 69.24 254.96 69.24 254.96 70.93 254.23 70.93 254.23 69.97 253.38 69.97 253.38 71.72 252.53 71.72 252.53 72.57 251.74 72.57 251.74 70.76 249.93 70.76 249.93 68.27 249.25 68.27 249.25 67.59 248.34 67.59 248.34 69.46 247.5 69.46 247.5 68.27 246.76 68.27 246.76 64.77 245.69 64.77 245.69 66.75 245.01 66.75 245.01 71.78 244.27 71.78 244.27 68.42 241.55 68.42 241.55 64.89 240.78 64.89 240.78 62.62 239.88 62.62 239.88 45.58 238.29 45.58 238.29 43.05 237.47 43.05 237.47 36.29 236.43 36.29 236.43 42.14 235.57 42.14 235.57 43.95 234.85 43.95 234.85 42.23 233.85 42.23 233.85 48.26 233.08 48.26 233.08 43.13 231.45 43.13 231.45 39.69 229.72 39.69 229.72 46.49 229 46.49 229 32.21 228.09 32.21 228.09 20.2 227.23 20.2 227.23 22.06 226.37 22.06 226.37 46.53 225.6 46.53 225.6 33.08 224.65 33.08 224.65 38.01 223.74 38.01 223.74 54.06 223.02 54.06 223.02 48.16 222.11 48.16 222.11 56.64 221.3 56.64 221.3 55.78 220.57 55.78 220.57 54.15 219.62 54.15 219.62 44.81 218.89 44.81 218.89 38.88 217.81 38.88 217.81 40.55 217.08 40.55 217.08 45.58 216.22 45.58 216.22 56.59 215.5 56.59 215.5 47.35 214.5 47.35 214.5 50.7 213.68 50.7 213.68 62.58 212.82 62.58 212.82 65.02 212.1 65.02 212.1 64.25 211.19 64.25 211.19 70.96 210.33 70.96 210.33 68.38 209.51 68.38 209.51 69.24 208.65 69.24 208.65 71.78 207.88 71.78 207.88 70.05 206.88 70.05 206.88 72.68 206.16 72.68 206.16 71.05 203.58 71.05 203.58 69.24 202.72 69.24 202.72 71.01 201.99 71.01 201.99 67.65 200.95 67.65 200.95 69.24 199.32 69.24 199.32 71.82 198.68 71.82 198.68 68.38 197.69 68.38 197.69 69.28 196.87 69.28 196.87 68.39 195.19 68.39 195.19 65.79 193.43 65.79 193.43 65.07 192.7 65.07 192.7 64.07 191.79 64.07 191.79 65.07 190.93 65.07 190.93 67.65 190.14 67.65 190.14 68.39 189.26 68.39 189.26 65.86 188.48 65.86 188.48 65.06 186.82 65.06 186.82 54.94 185.94 54.94 185.94 55.87 184.13 55.87 184.13 56.65 183.46 56.65 183.46 49.92 182.53 49.92 182.53 48.11 181.6 48.11 181.6 51.52 180.88 51.52 180.88 46.3 180 46.3 180 37.24 179.12 37.24 179.12 38.17 178.24 38.17 178.24 51.63 177.46 51.63 177.46 61.72 176.68 61.72 176.68 50.59 175.7 50.59 175.7 54.84 174.98 54.84 174.98 53.24 174.04 53.24 174.04 48.26 173.11 48.26 173.11 61.56 172.29 61.56 172.29 57.42 171.41 57.42 171.41 60.73 170.84 60.73 170.84 53.24 169.96 53.24 169.96 39.73 169.03 39.73 169.03 45 168.15 45 168.15 48.32 165.66 48.32 165.66 50.75 164.89 50.75 164.89 60.89 163.96 60.89 163.96 59.13 163.02 59.13 163.02 60.89 162.28 60.89 162.28 66.75 161.43 66.75 161.43 68.47 160.53 68.47 160.53 70.05 159.68 70.05 159.68 73.47 158.84 73.47 158.84 66.78 158.07 66.78 158.07 65.06 157.19 65.06 157.19 70.98 155.41 70.98 155.41 71.96 154.6 71.96 154.6 70.98 152.82 70.98 152.82 71.96 152.18 71.96 152.18 70.17 151.21 70.17 151.21 68.45 150.41 68.45 150.41 69.29 149.57 69.29 149.57 70.13 148.73 70.13 148.73 68.45 147.05 68.45 147.05 65.13 146.25 65.13 146.25 58.36 145.41 58.36 145.41 57.48 144.53 57.48 144.53 54.03 143.64 54.03 143.64 55 142.05 55 142.05 61.72 141.16 61.72 141.16 64.2 140.32 64.2 140.32 43.99 139.4 43.99 139.4 51.51 138.68 51.51 138.68 50.67 137.88 50.67 137.88 48.19 136.88 48.19 136.88 47.31 136.04 47.31 136.04 50.71 135.15 50.71 135.15 51.55 134.35 51.55 134.35 50.8 133.56 50.8 133.56 47.39 132.72 47.39 132.72 48.19 131.79 48.19 131.79 44.83 131.03 44.83 131.03 52.44 130.19 52.44 130.19 60.04 129.23 60.04 129.23 51.47 128.39 51.47 128.39 50.8 127.59 50.8 127.59 51.59 126.79 51.59 126.79 30.41 126.12 30.41 126.12 15.32 125.13 15.32 125.13 44.83 124.24 44.83 124.24 51.57 123.4 51.57 123.4 54.08 122.59 54.08 122.59 57.49 121.77 57.49 121.77 56.57 120.88 56.57 120.88 48.24 120.02 48.24 120.02 49.05 119.18 49.05 119.18 63.43 118.37 63.43 118.37 61.7 117.61 61.7 117.61 58.27 116.72 58.27 116.72 48.24 114.96 48.24 114.96 51.59 114.12 51.59 114.12 58.35 113.23 58.35 113.23 63.38 112.47 63.38 112.47 57.43 111.58 57.43 111.58 63.43 110.67 63.43 110.67 65.11 109.95 65.11 109.95 70.93 108.17 70.93 108.17 71.82 107.41 71.82 107.41 70.31 106.52 70.31 106.52 72.58 105.62 72.58 105.62 70.13 104.95 70.13 104.95 71.73 103.22 71.73 103.22 68.39 102.32 68.39 102.32 69.23 101.34 69.23 101.34 71.78 99.87 71.78 99.87 70.17 99.03 70.17 99.03 64.2 98.09 64.2 98.09 70.97 97.2 70.97 97.2 69.33 96.39 69.33 96.39 68.48 94.61 68.48 94.61 71.06 93.01 71.06 93.01 72.58 92.05 72.58 92.05 70.12 91.35 70.12 91.35 69.29 90.5 69.29 90.5 71.78 89.66 71.78 89.66 71 88.81 71 88.81 71.78 87.15 71.78 87.15 66.64 86.22 66.64 86.22 69.38 84.53 69.38 84.53 67.53 83.67 67.53 83.67 69.12 82.94 69.12 82.94 67.53 81.94 67.53 81.94 69.23 81.2 69.23 81.2 68.38 80.35 68.38 80.35 64.91 79.5 64.91 79.5 67.68 78.72 67.68 78.72 61.61 77.76 61.61 77.76 59.95 76.97 59.95 76.97 49.89 76.14 49.89 76.14 50.82 75.32 50.82 75.32 39.77 74.44 39.77 74.44 43.9 73.81 43.9 73.81 42.16 72.69 42.16 72.69 37.5 71.79 37.5 71.79 52.88 71.02 52.88 71.02 58.24 70.26 58.31 70.26 44.74 69.28 44.74 69.28 60.75 68.52 60.75 68.52 49.82 67.68 49.82 67.68 40.56 66.78 40.56 66.78 39.66 65.25 39.66 65.25 1.58 64.34 1.58 64.34 16.82 63.37 16.82 63.37 11.81 62.6 11.81 62.6 2.62 61.72 2.62 61.72 43.93 60.94 43.93 60.94 44.83 59.97 44.83 59.97 51.42 59.26 51.42 59.26 45.42 58.66 45.42 58.66 16.09 57.54 16.09 57.54 27.98 56.69 27.98 56.69 32.86 56.02 32.86 56.02 28.87 54.78 28.87 54.78 29.58 54.04 29.58 54.04 41.36 53.33 41.36 53.33 43.19 52.55 43.19 52.55 54.11 51.69 54.11 51.69 60.85 50.83 60.85 50.83 67.56 49.08 67.56 49.08 70.83 49.08 70.83 48.44 70.9 48.44 68.23 46.63 68.23 46.63 71.59 45.77 71.59 45.77 69.95 44.83 69.95 44.83 68.23 44.83 66.68 43.97 66.68 43.97 65.82 43.11 65.82 43.11 64.92 41.47 64.92 41.47 64.1 40.61 64.1 40.61 61.61 39.67 61.61 39.67 66.6 38.81 66.6 38.81 67.41 38.03 67.41 38.03 68.23 36.4 68.23 36.4 66.6 35.5 66.6 35.5 62.28 34.83 62.28 34.83 57.16 33.73 57.16 33.73 55.09 33 55.09 33 53.81 32.21 53.81 32.21 37.38 31.42 37.38 31.42 40.42 30.45 40.42 30.45 38.11 29.59 38.11 29.59 39.94 28.68 39.94 28.68 48.21 27.89 48.21 27.89 49.8 27.1 49.8 27.1 52.48 26.37 52.48 26.37 55.46 25.58 55.46 25.58 13.57 24.54 13.57 24.54 4.26 23.43 4.26 23.43 6.82 22.84 6.82 22.84 27.82 22.05 27.82 22.05 41.46 21.13 41.46 21.13 34.7 20.34 34.7 20.34 38.05 19.55 38.05 19.55 44.01 18.64 44.01 18.64 54.97 17.84 54.97 17.84 56.43 16.87 56.43 16.87 29.46 16.32 29.46 16.32 7.67 15.35 7.67 15.35 17.59 14.62 17.59 14.62 8.64 13.58 8.58 13.58 0 12.67 0 12.67 5.24 12 5.24 12 16.11 11.13 16.11 11.13 22.33 10.09 22.33 10.09 41.29 8.84 41.29 8.84 39.65 7.82 39.65 7.82 40.59 6.72 40.51 6.72 48.11 5.94 48.35 5.94 39.65 5.23 39.65 5.23 43.02 4.29 43.02 4.29 45.53 3.58 45.53 3.58 47.33 2.8 47.33 2.8 55.01 1.81 55.01 1.81 64.31 1.09 64.31 1.09 66.8 0 66.8 0 67.26 0 75 0 82.74 0 83.2 1.09 83.2 1.09 85.69 1.81 85.69 1.81 94.99 2.8 94.99 2.8 102.67 3.58 102.67 3.58 104.47 4.29 104.47 4.29 106.98 5.23 106.98 5.23 110.35 5.94 110.35 5.94 101.65 6.72 101.89 6.72 109.49 7.82 109.41 7.82 110.35 8.84 110.35 8.84 108.71 10.09 108.71 10.09 127.67 11.13 127.67 11.13 133.9 12 133.9 12 144.76 12.67 144.76 12.67 150 13.58 150 13.58 141.42 14.62 141.36 14.62 132.41 15.35 132.41 15.35 142.33 16.32 142.33 16.32 120.54 16.87 120.54 16.87 93.57 17.84 93.57 17.84 95.03 18.64 95.03 18.64 105.99 19.55 105.99 19.55 111.95 20.34 111.95 20.34 115.3 21.13 115.3 21.13 108.54 22.05 108.54 22.05 122.18 22.84 122.18 22.84 143.18 23.43 143.18 23.43 145.74 24.54 145.74 24.54 136.43 25.58 136.43 25.58 94.54 26.37 94.54 26.37 97.52 27.1 97.52 27.1 100.2 27.89 100.2 27.89 101.79 28.68 101.79 28.68 110.06 29.59 110.06 29.59 111.89 30.45 111.89 30.45 109.58 31.42 109.58 31.42 112.62 32.21 112.62 32.21 96.19 33 96.19 33 94.91 33.73 94.91 33.73 92.84 34.83 92.84 34.83 87.72 35.5 87.72 35.5 84.44 36.46 84.44 36.46 81.97 37.38 81.97 37.38 79.46 38.25 79.46 38.25 80.23 38.97 80.23 38.97 86.03 40.61 86.03 40.61 84.28 42.4 84.28 42.4 81 43.89 81 43.89 83.61 44.92 83.61 44.92 81.15 47.67 81.15 47.67 82.86 48.44 82.86 48.44 81.14 49.08 81.14 49.08 81.25 50.83 81.25 50.83 87.96 51.69 87.96 51.69 94.71 52.55 94.71 52.55 105.63 53.33 105.63 53.33 107.46 54.04 107.46 54.04 119.24 54.78 119.24 54.78 119.94 56.02 119.94 56.02 115.96 56.69 115.96 56.69 120.84 57.54 120.84 57.54 132.73 58.66 132.73 58.66 103.39 59.26 103.39 59.26 97.39 59.97 97.39 59.97 103.99 60.94 103.99 60.94 104.89 61.72 104.89 61.72 146.19 62.6 146.19 62.6 137 63.37 137 63.37 131.99 64.34 131.99 64.34 147.24 65.25 147.24 65.25 109.16 66.78 109.16 66.78 108.25 67.68 108.25 67.68 99 68.52 99 68.52 88.07 69.28 88.07 69.28 104.08 70.26 104.08 70.26 90.5 71.02 90.58 71.02 95.93 71.79 95.93 71.79 111.31 72.69 111.31 72.69 106.65 73.81 106.65 73.81 104.91 74.44 104.91 74.44 109.04 75.32 109.04 75.32 98 76.14 98 76.14 98.93 76.97 98.93 76.97 88.86 77.76 88.86 77.76 87.21 78.72 87.21 78.72 81.14 79.5 81.14 79.5 83.91 80.35 83.91 80.35 80.44 81.2 80.44 81.2 79.58 81.94 79.58 81.94 81.28 82.94 81.28 82.94 79.7 83.67 79.7 83.67 81.28 84.53 81.28 84.53 79.44 86.22 79.44 86.22 82.17 87.15 82.17 87.15 77.03 88.81 77.03 88.81 77.81 89.66 77.81 89.66 77.03 90.5 77.03 90.5 79.52 91.35 79.52 91.35 78.7 92.05 78.7 92.05 77.75 93.05 77.75 93.05 81.27 94.79 81.27 94.79 78.51 96.44 78.51 96.44 79.45 97.11 79.45 97.11 81.09 98 81.09 98 82.75 98.89 82.75 98.89 80.25 99.92 80.25 99.92 78.55 102.28 78.55 102.28 77.75 103.93 77.75 103.93 79.49 104.91 79.49 104.91 77.84 105.67 77.84 105.67 78.55 108.3 78.55 108.3 79.49 109.95 79.49 109.95 81.57 110.67 81.57 110.67 83.25 111.58 83.25 111.58 89.25 112.47 89.25 112.47 83.3 113.23 83.3 113.23 88.33 114.12 88.33 114.12 95.09 114.96 95.09 114.96 98.44 116.72 98.44 116.72 88.41 117.61 88.41 117.61 84.98 118.37 84.98 118.37 83.25 119.18 83.25 119.18 97.63 120.02 97.63 120.02 98.44 120.88 98.44 120.88 90.11 121.77 90.11 121.77 89.19 122.59 89.19 122.59 92.6 123.4 92.6 123.4 95.12 124.24 95.12 124.24 101.85 125.13 101.85 125.13 131.36 126.12 131.36 126.12 116.27 126.79 116.27 126.79 95.09 127.59 95.09 127.59 95.89 128.39 95.89 128.39 95.21 129.23 95.21 129.23 86.64 130.19 86.64 130.19 94.25 131.03 94.25 131.03 101.86 131.79 101.86 131.79 98.49 132.72 98.49 132.72 99.29 133.56 99.29 133.56 95.89 134.35 95.89 134.35 95.13 135.15 95.13 135.15 95.97 136.04 95.97 136.04 99.38 136.88 99.38 136.88 98.49 137.88 98.49 137.88 96.01 138.68 96.01 138.68 95.17 139.4 95.17 139.4 102.69 140.32 102.69 140.32 82.48 141.16 82.48 141.16 84.96 142.05 84.96 142.05 91.68 143.64 91.68 143.64 92.65 144.53 92.65 144.53 89.2 145.41 89.2 145.41 88.32 146.25 88.32 146.25 81.55 147.05 81.55 147.05 78.23 148.73 78.23 148.73 76.55 149.57 76.55 149.57 77.39 150.41 77.39 150.41 78.23 151.21 78.23 151.21 76.51 151.23 76.51 151.23 78.7 152.18 78.7 152.18 77.79 152.91 77.79 152.91 79.44 153.79 79.44 153.79 76.91 154.56 76.91 154.56 78.63 156.28 78.63 156.28 77.69 158 77.69 158 82.78 158.81 82.78 158.81 81.13 159.68 81.13 159.68 80.35 160.53 80.35 160.53 79.44 161.37 79.44 161.37 78.57 162.28 78.57 162.28 83.51 162.28 89.37 163.02 89.37 163.02 91.13 163.96 91.13 163.96 89.37 164.89 89.37 164.89 99.51 165.66 99.51 165.66 101.94 168.15 101.94 168.15 105.25 169.03 105.25 169.03 110.53 169.96 110.53 169.96 97.02 170.84 97.02 170.84 89.52 171.41 89.52 171.41 92.83 172.29 92.83 172.29 88.69 173.11 88.69 173.11 101.99 174.04 101.99 174.04 97.02 174.98 97.02 174.98 95.42 175.7 95.42 175.7 99.66 176.68 99.66 176.68 88.54 177.46 88.54 177.46 98.63 178.24 98.63 178.24 112.08 179.12 112.08 179.12 113.01 180 113.01 180 103.96 180.88 103.96 180.88 98.73 181.6 98.73 181.6 102.15 182.53 102.15 182.53 100.34 183.46 100.34 183.46 93.61 184.13 93.61 184.13 94.39 185.94 94.39 185.94 95.32 186.82 95.32 186.82 85.19 188.48 85.19 188.48 84.4 189.26 84.4 189.26 81.86 190.14 81.86 190.14 81.07 190.75 81.07 190.75 85.37 191.88 85.37 191.88 84.56 192.56 84.56 192.56 81.07 194.2 81.07 194.2 82.7 195.1 82.7 195.1 81.2 196.82 81.2 196.82 78.62 199.36 78.62 199.36 80.3 200.18 80.3 200.18 81.2 201.99 81.2 201.99 78.62 203.49 78.62 203.49 81.2 204.53 81.2 204.53 77.94 205.3 77.94 205.3 78.44 206.16 78.44 206.16 77.67 207.79 77.67 207.79 78.44 209.6 78.44 209.6 76.91 210.33 76.91 211.19 76.91 211.19 77.68 211.19 84.39 212.1 84.39 212.1 83.62 212.82 83.62 212.82 86.06 213.68 86.06 213.68 97.94 214.5 97.94 214.5 101.29 215.5 101.29 215.5 92.05 216.22 92.05 216.22 103.06 217.08 103.06 217.08 108.09 217.81 108.09 217.81 109.77 218.89 109.77 218.89 103.83 219.62 103.83 219.62 94.5 220.57 94.5 220.57 92.86 221.3 92.86 221.3 92 222.11 92 222.11 100.48 223.02 100.48 223.02 94.58 223.74 94.58 223.74 110.63 224.65 110.63 224.65 115.57 225.6 115.57 225.6 102.11 226.37 102.11 226.37 126.58 227.23 126.58 227.23 128.44 228.09 128.44 228.09 116.43 229 116.43 229 102.15 229.72 102.15 229.72 108.95 231.45 108.95 231.45 105.51 233.08 105.51 233.08 100.39 233.85 100.39 233.85 106.41 234.85 106.41 234.85 104.69 235.57 104.69 235.57 106.5 236.43 106.5 236.43 112.35 237.47 112.35 237.47 105.6 238.29 105.6 238.29 103.06 239.88 103.06 239.88 86.02 240.78 86.02 240.78 83.75 241.55 83.75 241.55 81.85 242.29 81.85 242.29 82.76 243.19 82.76 243.19 80.16 244.16 80.16 244.16 81.06 244.95 81.06 244.95 82.76 246.65 82.76 246.65 79.42 247.5 79.42 247.5 78.57 249.19 78.57 249.19 79.42 250.04 79.42 250.04 78.74 251.74 78.74 251.74 80.33 252.64 80.33 252.64 79.59 252.64 78.8 254.12 78.8 254.12 81.12 255.13 81.12 255.13 76.91 255.87 76.91 255.87 78.63 256.77 78.63 256.77 81.06 257.57 81.06 257.57 78.51 258.47 78.51 258.47 75.97 259.15 75.97 259.15 77.78 260.9 77.78 260.9 79.53 261.75 79.53 261.75 80.33 262.49 80.33 262.49 85.42 263.45 85.42 263.45 83.15 264.3 83.15 264.3 84.4 265.26 84.4 265.26 81.91 266 81.91 266 70.88 265.32 70.88"/></svg>